<svg width="53" height="52" viewBox="0 0 53 52" fill="none" xmlns="http://www.w3.org/2000/svg">
<path d="M26.4999 4.68478C33.5758 4.68478 34.4138 4.7112 37.2082 4.83629C39.7919 4.95198 41.195 5.37555 42.1289 5.73151C43.3658 6.20316 44.2487 6.76667 45.1759 7.67645C46.1032 8.58622 46.6775 9.45243 47.1582 10.6659C47.5211 11.5822 47.9528 12.9589 48.0707 15.4938C48.1982 18.2355 48.2251 19.0577 48.2251 26.0001C48.2251 32.9424 48.1982 33.7646 48.0707 36.5062C47.9528 39.0412 47.5211 40.4179 47.1582 41.3342C46.6775 42.5477 46.1032 43.4139 45.1759 44.3237C44.2487 45.2334 43.3658 45.7969 42.1289 46.2685C41.195 46.6246 39.7919 47.0481 37.2082 47.1638C34.4143 47.2889 33.5762 47.3153 26.4999 47.3153C19.4237 47.3153 18.5856 47.2889 15.7917 47.1638C13.208 47.0481 11.8048 46.6246 10.8711 46.2685C9.63411 45.7969 8.75123 45.2334 7.82396 44.3237C6.8967 43.4139 6.32235 42.5477 5.84173 41.3342C5.47882 40.4179 5.04711 39.0412 4.92919 36.5063C4.8017 33.7646 4.77477 32.9424 4.77477 26.0001C4.77477 19.0577 4.8017 18.2355 4.92919 15.4939C5.04711 12.9589 5.47882 11.5822 5.84173 10.6659C6.32235 9.45243 6.8967 8.58622 7.82396 7.67645C8.75123 6.76667 9.63411 6.20316 10.8711 5.73151C11.8048 5.37555 13.208 4.95198 15.7916 4.83629C18.586 4.7112 19.4241 4.68478 26.4999 4.68478ZM26.4999 0C19.3029 0 18.4006 0.0299301 15.5741 0.156462C12.7534 0.282788 10.8271 0.722244 9.14139 1.36502C7.39878 2.02947 5.92094 2.91849 4.44772 4.36391C2.97451 5.80932 2.06839 7.25928 1.39116 8.96901C0.736028 10.6229 0.288121 12.5128 0.159366 15.2803C0.0304005 18.0534 0 18.9388 0 26.0001C0 33.0613 0.0304005 33.9467 0.159366 36.7198C0.288121 39.4873 0.736028 41.3772 1.39116 43.0311C2.06839 44.7407 2.97451 46.1908 4.44772 47.6362C5.92094 49.0816 7.39878 49.9706 9.14139 50.6351C10.8271 51.2779 12.7534 51.7173 15.5741 51.8436C18.4006 51.9702 19.3029 52 26.4999 52C33.697 52 34.5994 51.9702 37.4258 51.8436C40.2465 51.7173 42.1728 51.2779 43.8585 50.6351C45.6011 49.9706 47.079 49.0816 48.5522 47.6362C50.0254 46.1908 50.9315 44.7408 51.6087 43.0311C52.2639 41.3772 52.7118 39.4873 52.8405 36.7198C52.9695 33.9467 53 33.0613 53 26.0001C53 18.9388 52.9695 18.0534 52.8405 15.2803C52.7118 12.5128 52.2639 10.6229 51.6087 8.96901C50.9315 7.25928 50.0254 5.80932 48.5522 4.36391C47.079 2.91849 45.6011 2.02947 43.8585 1.36502C42.1728 0.722244 40.2465 0.282788 37.4258 0.156462C34.5994 0.0299301 33.697 0 26.4999 0ZM26.4999 12.6487C18.9844 12.6487 12.8918 18.6263 12.8918 26.0001C12.8918 33.3738 18.9844 39.3514 26.4999 39.3514C34.0155 39.3514 40.1081 33.3738 40.1081 26.0001C40.1081 18.6263 34.0155 12.6487 26.4999 12.6487ZM26.4999 34.6668C21.6215 34.6668 17.6666 30.7865 17.6666 26.0001C17.6666 21.2136 21.6215 17.3333 26.4999 17.3333C31.3784 17.3333 35.3333 21.2136 35.3333 26.0001C35.3333 30.7865 31.3784 34.6668 26.4999 34.6668ZM43.8257 12.1212C43.8257 13.8443 42.402 15.2412 40.6457 15.2412C38.8895 15.2412 37.4657 13.8443 37.4657 12.1212C37.4657 10.398 38.8895 9.00121 40.6457 9.00121C42.402 9.00121 43.8257 10.398 43.8257 12.1212Z" fill="white"/>
</svg>
