<svg width={50} height={49} viewBox="0 0 50 49" fill="none" xmlns="http://www.w3.org/2000/svg">
  <path d="M50 3.60294V45.3971C50 46.3526 49.6127 47.269 48.9232 47.9447C48.2337 48.6204 47.2986 49 46.3235 49H3.67647C2.70141 49 1.76629 48.6204 1.07681 47.9447C0.387341 47.269 0 46.3526 0 45.3971L0 3.60294C0 2.64738 0.387341 1.73096 1.07681 1.05528C1.76629 0.379594 2.70141 0 3.67647 0L46.3235 0C47.2986 0 48.2337 0.379594 48.9232 1.05528C49.6127 1.73096 50 2.64738 50 3.60294ZM14.7059 18.7353H7.35294V41.7941H14.7059V18.7353ZM15.3676 10.8088C15.3715 10.2638 15.2658 9.72328 15.0565 9.21825C14.8473 8.71323 14.5385 8.25354 14.148 7.86544C13.7574 7.47735 13.2927 7.16844 12.7803 6.95636C12.2679 6.74428 11.718 6.63318 11.1618 6.62941H11.0294C9.89834 6.62941 8.8136 7.06974 8.01381 7.85353C7.21402 8.63732 6.76471 9.70037 6.76471 10.8088C6.76471 11.9173 7.21402 12.9803 8.01381 13.7641C8.8136 14.5479 9.89834 14.9882 11.0294 14.9882C11.5856 15.0016 12.1391 14.9075 12.6582 14.7112C13.1773 14.5149 13.6518 14.2203 14.0547 13.8443C14.4576 13.4682 14.7809 13.018 15.0062 12.5194C15.2315 12.0208 15.3543 11.4836 15.3676 10.9385V10.8088ZM42.6471 27.7859C42.6471 20.8538 38.1471 18.1588 33.6765 18.1588C32.2127 18.087 30.7553 18.3925 29.4496 19.0449C28.144 19.6974 27.0357 20.6739 26.2353 21.8771H26.0294V18.7353H19.1176V41.7941H26.4706V29.5297C26.3643 28.2736 26.768 27.0272 27.5941 26.0611C28.4202 25.0951 29.6018 24.4875 30.8824 24.3703H31.1618C33.5 24.3703 35.2353 25.8115 35.2353 29.4432V41.7941H42.5882L42.6471 27.7859Z" fill="white" />
</svg>

