<svg width="369" height="382" viewBox="0 0 369 382" fill="none" xmlns="http://www.w3.org/2000/svg">
<path d="M352.568 78.2245L350.373 74.464C331.773 42.747 298.14 23.634 262.685 25.9455C258.122 26.2445 253.585 26.8902 249.111 27.8775C216.882 35.019 188.834 60.25 177.203 92.5535C170.366 111.551 168.424 133.436 155.487 148.513C138.599 168.143 109.925 168.752 84.7195 167.947C59.5137 167.143 30.8294 167.821 14.0183 187.497C3.44001 199.871 0.148012 217.42 0.992958 233.9C3.18762 277.6 32.6949 316.78 70.1249 336.25C107.555 355.719 151.712 357.433 192.719 348.9C250.175 336.917 304.812 304.05 337.644 253.174C370.476 202.298 378.838 133.091 352.568 78.2245Z" fill="#E0E0E0"/>
<path d="M298.557 328.798L272.298 337.998H38.3352C37.0227 337.998 35.7639 337.452 34.8358 336.479C33.9077 335.506 33.3862 334.187 33.3862 332.811C33.3848 332.129 33.5118 331.454 33.7598 330.823C34.0079 330.193 34.3722 329.619 34.8319 329.137C35.2916 328.654 35.8376 328.271 36.4388 328.009C37.0399 327.748 37.6844 327.613 38.3352 327.613H271.409L296.033 319.563L298.557 328.798Z" fill="#455A64"/>
<path d="M247.004 338.032H242.692V361.653H247.004V338.032Z" fill="#E0E0E0"/>
<path d="M243.185 355.8C243.185 363.344 238.631 369.462 233.013 369.462H223.137C223.137 369.462 222.852 359.894 222.852 355.8C222.852 352.223 221.469 344.564 223.137 342.138H232.783C238.368 342.08 243.185 348.198 243.185 355.8Z" fill="#263238"/>
<path d="M223.126 369.404C228.744 369.404 233.298 363.288 233.298 355.742C233.298 348.197 228.744 342.08 223.126 342.08C217.508 342.08 212.954 348.197 212.954 355.742C212.954 363.288 217.508 369.404 223.126 369.404Z" fill="#455A64"/>
<path d="M226.001 355.8C226.001 357.928 224.717 359.653 223.126 359.653C221.535 359.653 220.24 357.928 220.24 355.8C220.24 353.673 221.535 351.936 223.126 351.936C224.717 351.936 226.001 353.615 226.001 355.8Z" fill="#263238"/>
<path d="M277.236 355.8C277.236 363.344 272.682 369.462 267.063 369.462H257.187C257.187 369.462 256.924 359.836 256.924 355.8C256.924 352.223 255.541 344.564 257.209 342.138H266.8C272.418 342.08 277.236 348.198 277.236 355.8Z" fill="#263238"/>
<path d="M257.176 369.404C262.794 369.404 267.349 363.288 267.349 355.742C267.349 348.197 262.794 342.08 257.176 342.08C251.558 342.08 247.004 348.197 247.004 355.742C247.004 363.288 251.558 369.404 257.176 369.404Z" fill="#455A64"/>
<path d="M257.176 359.595C258.77 359.595 260.062 357.87 260.062 355.743C260.062 353.615 258.77 351.89 257.176 351.89C255.583 351.89 254.29 353.615 254.29 355.743C254.29 357.87 255.583 359.595 257.176 359.595Z" fill="#263238"/>
<path d="M254.258 359.169H246.664C245.741 359.169 244.857 358.785 244.204 358.102C243.552 357.418 243.185 356.491 243.185 355.524C243.185 354.557 243.552 353.63 244.204 352.946C244.857 352.263 245.741 351.878 246.664 351.878H254.258C255.18 351.878 256.065 352.263 256.717 352.946C257.37 353.63 257.736 354.557 257.736 355.524C257.736 356.491 257.37 357.418 256.717 358.102C256.065 358.785 255.18 359.169 254.258 359.169Z" fill="#E0E0E0"/>
<path d="M98.6117 338.032H94.2992V361.653H98.6117V338.032Z" fill="#E0E0E0"/>
<path d="M94.8039 355.8C94.8039 363.344 90.25 369.462 84.6316 369.462H74.7556C74.7556 369.462 74.4703 359.894 74.4703 355.8C74.4703 352.223 73.0877 344.564 74.7556 342.138H84.3683C89.9757 342.08 94.8039 348.198 94.8039 355.8Z" fill="#263238"/>
<path d="M74.7448 369.404C80.3628 369.404 84.9171 363.288 84.9171 355.742C84.9171 348.197 80.3628 342.08 74.7448 342.08C69.1268 342.08 64.5725 348.197 64.5725 355.742C64.5725 363.288 69.1268 369.404 74.7448 369.404Z" fill="#455A64"/>
<path d="M77.6198 355.8C77.6198 357.928 76.3359 359.653 74.7448 359.653C73.1536 359.653 71.8588 357.928 71.8588 355.8C71.8588 353.673 73.1536 351.936 74.7448 351.936C76.3359 351.936 77.6198 353.615 77.6198 355.8Z" fill="#263238"/>
<path d="M128.854 355.8C128.854 363.344 124.3 369.462 118.682 369.462H108.806C108.806 369.462 108.532 359.894 108.532 355.8C108.532 352.223 107.138 344.564 108.806 342.138H118.43C124.026 342.08 128.854 348.198 128.854 355.8Z" fill="#263238"/>
<path d="M108.784 369.404C114.402 369.404 118.956 363.288 118.956 355.742C118.956 348.197 114.402 342.08 108.784 342.08C103.166 342.08 98.6117 348.197 98.6117 355.742C98.6117 363.288 103.166 369.404 108.784 369.404Z" fill="#455A64"/>
<path d="M108.784 359.595C110.378 359.595 111.67 357.87 111.67 355.743C111.67 353.615 110.378 351.89 108.784 351.89C107.19 351.89 105.898 353.615 105.898 355.743C105.898 357.87 107.19 359.595 108.784 359.595Z" fill="#263238"/>
<path d="M105.876 359.169H98.2825C97.3599 359.169 96.4751 358.785 95.8228 358.102C95.1704 357.418 94.804 356.491 94.804 355.524C94.804 354.557 95.1704 353.63 95.8228 352.946C96.4751 352.263 97.3599 351.878 98.2825 351.878H105.876C106.333 351.878 106.785 351.973 107.207 352.156C107.629 352.339 108.013 352.608 108.336 352.946C108.659 353.285 108.915 353.687 109.09 354.129C109.265 354.571 109.355 355.045 109.355 355.524C109.355 356.003 109.265 356.477 109.09 356.919C108.915 357.361 108.659 357.763 108.336 358.102C108.013 358.44 107.629 358.709 107.207 358.892C106.785 359.075 106.333 359.169 105.876 359.169Z" fill="#E0E0E0"/>
<path d="M101.86 312.031L78.5855 373.637L5.29456 343.679C8.45488 336.526 51.8544 337.285 51.8544 337.285L65.2199 297.15L101.86 312.031Z" fill="#FB8500"/>
<g opacity="0.6">
<path opacity="0.6" d="M75.7543 343.219C76.3752 343.733 76.7935 344.469 76.9291 345.285C77.0648 346.102 76.9083 346.943 76.4896 347.646C76.0243 348.317 75.3308 348.775 74.5526 348.925C73.7744 349.074 72.9711 348.905 72.3087 348.451C71.6512 347.906 71.2099 347.124 71.0701 346.258C70.9302 345.391 71.1018 344.501 71.5516 343.759C72.583 342.506 74.9643 342.172 75.9409 343.426" fill="white"/>
</g>
<g opacity="0.6">
<path opacity="0.6" d="M78.5854 373.636L80.6923 367.3L9.63994 340.965C9.63994 340.965 5.82122 341.126 5.25061 343.679L78.5854 373.636Z" fill="white"/>
</g>
<path d="M50.8119 336.411C50.6802 336.79 52.4031 337.699 53.7199 339.619C55.0367 341.54 55.3768 343.506 55.7609 343.495C56.145 343.483 56.4193 341.091 54.7952 338.791C53.1712 336.491 50.8558 336.031 50.8119 336.411Z" fill="#263238"/>
<path d="M41.8467 336.606C41.6272 336.928 42.944 338.205 43.5695 340.286C44.195 342.368 43.9206 344.196 44.2827 344.323C44.6449 344.449 45.6654 342.425 44.8424 339.849C44.0194 337.273 42.0222 336.25 41.8467 336.606Z" fill="#263238"/>
<path d="M33.9239 344.461C34.2202 344.668 35.4163 343 35.2627 340.574C35.109 338.147 33.7374 336.641 33.474 336.894C33.2107 337.147 33.8252 338.665 33.9239 340.666C34.0227 342.667 33.5838 344.3 33.9239 344.461Z" fill="#263238"/>
<path d="M54.8172 327.625C54.8172 328.027 56.6826 328.177 58.6469 329.154C60.6111 330.132 61.9389 331.454 62.2461 331.19C62.5534 330.925 61.5438 328.993 59.2065 327.878C56.8692 326.762 54.7513 327.257 54.8172 327.625Z" fill="#263238"/>
<path d="M59.9527 319.23C59.8978 319.379 61.2256 320.184 63.6397 320.702C65.0508 321.002 66.4924 321.114 67.9303 321.035C68.785 320.998 69.6359 320.894 70.4761 320.725C70.9796 320.662 71.4693 320.51 71.9246 320.276C72.2593 320.106 72.5304 319.823 72.6952 319.474C72.8601 319.124 72.9094 318.727 72.8354 318.344C72.7469 318.013 72.5885 317.707 72.372 317.448C72.1555 317.189 71.8864 316.985 71.5844 316.849C71.121 316.656 70.6329 316.536 70.1359 316.493C67.8234 316.162 65.4684 316.447 63.2886 317.321C60.9842 318.275 59.8759 319.437 59.9966 319.563C60.1173 319.69 61.3792 318.919 63.6068 318.264C64.9078 317.884 66.2505 317.683 67.6011 317.666C68.391 317.66 69.18 317.722 69.9604 317.85C70.8163 317.953 71.4857 318.218 71.5515 318.655C71.5515 318.827 71.5515 318.885 71.3101 319.057C70.9602 319.217 70.591 319.326 70.2128 319.379C69.4308 319.554 68.6392 319.677 67.8425 319.747C66.4851 319.887 65.1179 319.887 63.7604 319.747C61.4451 319.483 60.0295 319 59.9527 319.23Z" fill="#263238"/>
<path d="M60.227 319.954C60.3257 320.058 61.5438 319.012 62.5753 316.631C63.1779 315.235 63.549 313.742 63.6726 312.215C63.743 311.31 63.7209 310.401 63.6067 309.501C63.5954 308.914 63.4413 308.34 63.159 307.833C62.8767 307.326 62.4756 306.902 61.9937 306.603C61.6645 306.476 61.3076 306.451 60.9653 306.531C60.623 306.61 60.3096 306.791 60.0624 307.051C59.7013 307.42 59.3943 307.842 59.1516 308.305C58.7087 309.112 58.3832 309.984 58.1859 310.893C57.8595 312.411 57.8896 313.989 58.2737 315.493C58.965 318.069 60.2928 319.127 60.3696 319.012C60.4464 318.897 59.5795 317.643 59.1955 315.285C58.9785 313.922 59.0421 312.527 59.382 311.191C59.5839 310.419 59.8867 309.68 60.2818 308.995C60.6988 308.224 61.2365 307.684 61.4999 307.845C61.7491 308.064 61.9505 308.336 62.0906 308.644C62.2307 308.951 62.3062 309.287 62.3119 309.628C62.4253 310.442 62.4693 311.266 62.4436 312.088C62.3932 313.493 62.1531 314.883 61.7303 316.217C60.9512 318.574 60.0514 319.816 60.227 319.954Z" fill="#263238"/>
<path d="M162.323 316.355L153.325 381.905L75.4141 370.589C76.9064 362.849 119.307 353.04 119.307 353.04L123.433 310.777L162.323 316.355Z" fill="#FB8500"/>
<g opacity="0.6">
<path opacity="0.6" d="M143.833 353.04C144.55 353.39 145.12 354.004 145.433 354.765C145.747 355.526 145.783 356.381 145.534 357.168C145.229 357.932 144.656 358.544 143.933 358.878C143.21 359.211 142.393 359.242 141.649 358.962C140.889 358.594 140.286 357.943 139.958 357.136C139.629 356.329 139.598 355.422 139.871 354.592C140.596 353.12 142.834 352.212 144.107 353.189" fill="white"/>
</g>
<g opacity="0.6">
<path opacity="0.6" d="M153.325 381.94L153.983 375.293L79.0243 366.921C79.0243 366.921 75.3482 368.002 75.4031 370.624L153.325 381.94Z" fill="white"/>
</g>
<path d="M118.067 352.476C118.067 352.879 119.9 353.339 121.612 354.891C123.324 356.444 124.081 358.272 124.454 358.157C124.827 358.042 124.564 355.673 122.468 353.822C120.372 351.97 118.035 352.108 118.067 352.476Z" fill="#263238"/>
<path d="M109.42 354.834C109.289 355.213 110.847 356.133 111.911 357.996C112.976 359.859 113.118 361.711 113.503 361.757C113.887 361.803 114.424 359.572 113.053 357.26C111.681 354.949 109.486 354.454 109.42 354.834Z" fill="#263238"/>
<path d="M103.429 364.414C103.758 364.552 104.526 362.631 103.868 360.308C103.21 357.985 101.509 356.858 101.311 357.157C101.114 357.456 102.046 358.802 102.584 360.722C103.122 362.643 103.056 364.322 103.429 364.414Z" fill="#263238"/>
<path d="M120.021 342.954C120.141 343.345 121.952 343.046 124.081 343.518C126.21 343.989 127.801 344.932 128.042 344.668C128.284 344.403 126.857 342.701 124.344 342.184C121.831 341.666 119.878 342.621 120.021 342.954Z" fill="#263238"/>
<path d="M123.159 333.536C123.159 333.697 124.608 334.168 127.066 334.088C128.507 334.027 129.937 333.784 131.323 333.363C132.143 333.114 132.946 332.807 133.726 332.443C134.2 332.255 134.641 331.987 135.032 331.65C135.319 331.403 135.519 331.064 135.603 330.686C135.686 330.307 135.648 329.91 135.493 329.557C135.34 329.251 135.12 328.988 134.851 328.788C134.582 328.588 134.272 328.458 133.946 328.407C133.451 328.332 132.948 328.332 132.453 328.407C131.592 328.506 130.74 328.683 129.908 328.936C128.513 329.365 127.191 330.02 125.99 330.879C123.949 332.374 123.126 333.777 123.247 333.869C123.368 333.961 124.454 332.903 126.484 331.73C127.667 331.047 128.928 330.526 130.237 330.178C131.005 329.981 131.786 329.846 132.574 329.775C133.43 329.672 134.132 329.776 134.286 330.19C134.352 330.339 134.352 330.396 134.143 330.626C133.854 330.866 133.532 331.06 133.189 331.201C132.474 331.558 131.742 331.873 130.994 332.144C129.701 332.595 128.371 332.918 127.022 333.11C124.673 333.421 123.181 333.318 123.159 333.536Z" fill="#263238"/>
<path d="M123.587 334.18C123.708 334.26 124.684 332.938 125.134 330.385C125.403 328.866 125.421 327.31 125.189 325.785C125.06 324.885 124.839 324.002 124.531 323.151C124.391 322.585 124.117 322.065 123.733 321.641C123.349 321.217 122.868 320.901 122.336 320.725C121.988 320.684 121.636 320.747 121.321 320.908C121.006 321.069 120.742 321.321 120.558 321.633C120.29 322.079 120.087 322.563 119.955 323.071C119.698 323.966 119.576 324.897 119.593 325.831C119.602 327.39 119.979 328.923 120.69 330.293C121.941 332.593 123.466 333.34 123.51 333.202C123.554 333.064 122.413 332.052 121.546 329.856C121.048 328.604 120.812 327.255 120.855 325.9C120.876 325.099 121.006 324.305 121.239 323.542C121.469 322.691 121.875 322.036 122.172 322.174C122.468 322.312 123.137 322.967 123.368 323.703C123.653 324.468 123.877 325.257 124.037 326.061C124.298 327.442 124.372 328.855 124.256 330.258C123.982 332.662 123.379 334.088 123.587 334.18Z" fill="#263238"/>
<path d="M278.662 241.777L277.686 188.567L279.551 140.106C278.772 122.856 255.871 107.618 244.93 102.236L219.461 93.508L192.302 99.695L166.581 108.4C162.509 109.619 149.023 117.416 145.885 120.383L69.1263 188.912L90.4914 232.75L169.927 167.372L171.946 180.804L175.008 244.837C175.008 244.837 201.585 251.07 221.096 260.511C240.607 269.953 271.573 300.37 271.573 300.37C286.322 303.946 285.564 281.912 285.564 281.912L278.662 241.777Z" fill="#FB8500"/>
<path d="M187.386 148.409C187.386 148.409 158.208 143.349 144.217 170.811C135.504 187.923 115.214 320.714 115.214 320.714L167.601 328.764L174.185 298.174L171.332 311.341C171.799 315.627 173.742 319.588 176.797 322.48C179.851 325.372 183.807 326.997 187.924 327.05C206.787 327.315 237.304 327.706 241.035 327.418C260.051 325.969 277.62 300.117 277.62 300.117L245.951 254.819C245.951 254.819 218.331 153.4 187.386 148.409Z" fill="#263238"/>
<path d="M126.616 142.889C126.616 142.889 103.242 142.889 95.4734 162.048C88.2968 179.746 52.9956 304.924 52.9956 304.924L100.96 324.221L136.415 232.117L160.907 167.556C160.907 167.556 143.997 146.201 126.616 142.889Z" fill="#263238"/>
<path d="M156.825 13.1C162.685 10.0985 169.993 14.802 176.094 12.456C179.814 11.03 182.229 7.33849 185.334 4.76249C189.987 0.932989 197.13 -0.75751 202.76 1.15149C208.389 3.06049 212.208 5.45249 213.843 11.421C218.155 7.77549 227.011 12.7205 230.632 18.321C234.253 23.9215 234.505 30.2695 233.924 36.997C232.97 48.6137 229.85 59.9213 224.739 70.278C224.289 71.1865 223.51 72.2445 222.545 71.9685C221.886 71.7615 221.568 71.014 221.359 70.3355C219.549 64.5855 219.351 58.41 218.934 52.3495C218.517 46.289 217.837 40.102 215.159 34.7085C212.482 29.315 207.478 24.83 201.673 24.6115C197.405 24.439 193.312 26.5665 189.954 29.3495C186.596 32.1325 183.798 35.571 180.67 38.63C177.543 41.689 173.911 44.38 169.697 45.3115C165.483 46.243 160.655 44.8745 158.252 41.16C155.849 37.4455 157.001 31.431 160.995 29.821C159.053 29.9437 157.13 29.3562 155.554 28.1589C153.979 26.9615 152.849 25.2285 152.357 23.2553C151.865 21.2822 152.041 19.1913 152.856 17.3393C153.671 15.4873 155.074 13.989 156.825 13.1Z" fill="#263238"/>
<path d="M191.556 113.702L190.206 100.799C190.206 100.799 173.603 100.247 171.398 83.204C170.301 74.9815 169.456 57.8465 168.83 42.333C168.508 34.2879 171.086 26.4103 176.054 20.2671C181.021 14.1239 188.012 10.1653 195.638 9.17848L197.218 8.98298C214.271 7.83298 224.739 22.369 225.365 40.286L231.861 109.286C232.386 114.868 230.782 120.442 227.4 124.789C224.019 129.137 219.133 131.907 213.81 132.493C208.484 133.08 203.152 131.433 198.982 127.911C194.812 124.39 192.142 119.281 191.556 113.702Z" fill="#FFBE9D"/>
<path d="M190.184 100.787C197.721 99.9664 204.853 96.8116 210.671 91.7255C210.671 91.7255 207.094 104.652 190.667 105.215L190.184 100.787Z" fill="#EB996E"/>
<path d="M176.303 52.775C176.372 53.4089 176.675 53.9894 177.146 54.3932C177.617 54.797 178.22 54.9921 178.827 54.937C179.128 54.9304 179.424 54.859 179.698 54.7272C179.971 54.5954 180.216 54.406 180.417 54.1709C180.617 53.9358 180.77 53.6599 180.864 53.3604C180.959 53.0609 180.994 52.7442 180.967 52.43C180.9 51.7949 180.598 51.2126 180.126 50.8083C179.654 50.4039 179.05 50.2099 178.443 50.268C178.142 50.2746 177.845 50.346 177.572 50.4778C177.298 50.6096 177.054 50.799 176.853 51.0341C176.652 51.2692 176.5 51.5451 176.405 51.8446C176.311 52.1441 176.276 52.4608 176.303 52.775Z" fill="#263238"/>
<path d="M173.318 50.222C173.636 50.5095 175.239 48.911 177.708 48.589C180.177 48.267 182.207 49.348 182.437 48.9915C182.558 48.842 182.196 48.3015 181.34 47.8415C180.164 47.1959 178.826 46.9469 177.51 47.1285C176.208 47.2888 174.989 47.8811 174.031 48.819C173.351 49.486 173.154 50.0955 173.318 50.222Z" fill="#263238"/>
<path d="M200.653 50.429C200.719 51.064 201.021 51.6464 201.493 52.0507C201.965 52.455 202.569 52.649 203.177 52.591C203.482 52.5923 203.785 52.5267 204.065 52.3984C204.345 52.2701 204.596 52.0819 204.803 51.8459C205.009 51.6099 205.167 51.3312 205.264 51.0278C205.362 50.7245 205.399 50.403 205.371 50.084C205.302 49.4501 205 48.8696 204.528 48.4658C204.057 48.062 203.454 47.8669 202.847 47.922C202.542 47.9207 202.239 47.9863 201.959 48.1146C201.679 48.2429 201.428 48.4311 201.221 48.6671C201.015 48.9031 200.857 49.1817 200.759 49.4851C200.662 49.7885 200.625 50.11 200.653 50.429Z" fill="#263238"/>
<path d="M197.964 47.6C198.293 47.876 199.896 46.2775 202.354 45.967C204.812 45.6565 206.842 46.726 207.083 46.3695C207.193 46.2085 206.842 45.668 205.986 45.2195C204.81 44.5739 203.472 44.3249 202.156 44.5065C200.854 44.6667 199.635 45.2591 198.678 46.197C198.008 46.8065 197.811 47.416 197.964 47.6Z" fill="#263238"/>
<path d="M191.172 68.162C189.804 67.8998 188.411 67.8148 187.024 67.909C186.376 67.909 185.751 67.909 185.586 67.426C185.454 66.7422 185.523 66.0325 185.784 65.3905C186.19 63.6885 186.618 61.9405 187.079 60.043C188.845 52.453 190.042 46.243 189.745 46.1625C189.449 46.082 187.792 52.2 186.014 59.79C185.597 61.6645 185.191 63.447 184.807 65.149C184.504 66.0139 184.504 66.9636 184.807 67.8285C184.93 68.0496 185.098 68.2395 185.299 68.3846C185.5 68.5298 185.729 68.6265 185.97 68.668C186.335 68.7184 186.704 68.7184 187.068 68.668C188.45 68.6783 189.829 68.5083 191.172 68.162Z" fill="#263238"/>
<path d="M198.765 69.0245C198.348 69.0245 198.677 71.8995 196.571 74.2225C194.464 76.5455 191.556 76.603 191.578 76.994C191.578 77.178 192.291 77.4655 193.52 77.3505C195.099 77.1608 196.566 76.4004 197.668 75.2C198.731 74.032 199.32 72.4783 199.314 70.8645C199.325 69.6455 198.93 68.9785 198.765 69.0245Z" fill="#263238"/>
<path d="M196.143 34.1335C196.472 34.812 198.93 34.1335 201.915 34.1335C204.899 34.1335 207.401 34.6625 207.676 33.9725C207.818 33.639 207.325 33.018 206.282 32.4545C204.905 31.7781 203.401 31.4371 201.88 31.457C200.36 31.4769 198.864 31.8573 197.503 32.5695C196.472 33.179 196 33.8 196.143 34.1335Z" fill="#263238"/>
<path d="M173.34 42.517C173.856 43.0575 175.535 42.218 177.576 41.919C179.617 41.62 181.449 41.827 181.779 41.1485C181.921 40.8265 181.57 40.263 180.736 39.7915C179.623 39.2557 178.382 39.079 177.173 39.2838C175.963 39.4885 174.839 40.0656 173.944 40.9415C173.285 41.6085 173.11 42.2525 173.34 42.517Z" fill="#263238"/>
<path d="M225.518 53.0855C225.782 52.9245 236.305 48.175 237.315 59.8935C238.324 71.612 226.901 70.2435 226.857 69.9215C226.813 69.5995 225.518 53.0855 225.518 53.0855Z" fill="#FFBE9D"/>
<path d="M229.886 65.1605C229.886 65.1605 230.094 65.287 230.434 65.4135C230.917 65.5713 231.439 65.5301 231.894 65.2985C232.991 64.735 233.858 62.6765 233.726 60.5605C233.667 59.5515 233.394 58.5692 232.925 57.6855C232.788 57.3301 232.57 57.0149 232.291 56.7666C232.012 56.5183 231.68 56.3443 231.323 56.2595C231.094 56.2209 230.858 56.2676 230.658 56.3915C230.458 56.5154 230.305 56.7087 230.226 56.938C230.105 57.2715 230.226 57.5015 230.138 57.5245C230.05 57.5475 229.886 57.352 229.93 56.8575C229.971 56.5652 230.102 56.2949 230.303 56.087C230.45 55.9458 230.624 55.8374 230.812 55.7682C231.001 55.699 231.201 55.6706 231.4 55.6845C231.868 55.7339 232.316 55.9091 232.701 56.1932C233.085 56.4773 233.393 56.8606 233.595 57.306C234.159 58.2733 234.487 59.3713 234.549 60.503C234.681 62.872 233.726 65.195 232.146 65.839C231.855 65.9579 231.543 66.0072 231.231 65.9833C230.92 65.9595 230.618 65.863 230.347 65.701C229.93 65.4365 229.842 65.1835 229.886 65.1605Z" fill="#EB996E"/>
<path d="M164.968 39.205C168.688 39.7066 172.469 39.276 176 37.9486C179.531 36.6211 182.711 34.4347 185.279 31.569C188.824 27.544 191.293 22.093 196.066 19.8505C197.702 19.1553 199.455 18.8094 201.22 18.8331C202.986 18.8567 204.729 19.2496 206.348 19.9885C209.582 21.4838 212.488 23.6602 214.885 26.3825C212.756 35.4675 215.983 44.8745 219.209 53.603C219.468 54.6054 220.035 55.4905 220.822 56.1215C222.259 57.0185 224.114 55.926 225.134 54.523C226.736 52.223 227.12 49.325 227.263 46.473C227.695 40.0678 226.904 33.6366 224.937 27.5555C222.939 21.462 219.285 16.1136 214.424 12.1685C208.153 7.45133 200.38 5.46832 192.741 6.63699C185.142 7.86684 178.108 11.5772 172.638 17.24C169.987 19.7251 167.97 22.8633 166.767 26.371" fill="#263238"/>
<path d="M152.677 17.815C152.686 18.1605 152.76 18.5008 152.897 18.8155C153.279 19.7306 153.923 20.4983 154.74 21.012C156.051 21.7936 157.566 22.1159 159.064 21.932C159.995 21.8659 160.915 21.6884 161.807 21.403C162.831 21.0774 163.754 20.4744 164.485 19.655C164.887 19.1951 165.186 18.6463 165.359 18.0492C165.532 17.452 165.574 16.8217 165.483 16.205C165.32 15.535 164.979 14.9273 164.499 14.4529C164.019 13.9784 163.421 13.6568 162.773 13.5255C162.106 13.353 161.409 13.353 160.743 13.5255C160.045 13.7151 159.415 14.1149 158.932 14.6755C158.45 15.2602 158.096 15.9478 157.893 16.6905C157.69 17.4332 157.644 18.2132 157.758 18.9765C157.968 20.5843 158.777 22.0397 160.008 23.0245C161.266 24.0375 162.758 24.6841 164.331 24.899C167.616 25.2602 170.922 24.4499 173.713 22.599C176.478 20.8296 179.037 18.7302 181.34 16.343C183.472 14.1609 185.773 12.1684 188.22 10.386C190.41 8.7692 192.939 7.72795 195.594 7.34999C197.922 7.12984 200.268 7.45186 202.463 8.29299C205.65 9.54726 208.477 11.638 210.671 14.365C211.462 15.3195 212.01 16.1245 212.383 16.665C212.556 16.9537 212.747 17.2303 212.954 17.493C212.954 17.493 212.954 17.401 212.844 17.2515C212.734 17.102 212.647 16.8835 212.471 16.596C211.981 15.7734 211.435 14.9893 210.836 14.25C208.672 11.4141 205.828 9.23139 202.595 7.92499C200.349 7.03536 197.942 6.68559 195.55 6.90149C192.797 7.21944 190.16 8.23802 187.869 9.86849C185.39 11.657 183.059 13.6612 180.901 15.86C178.623 18.2074 176.097 20.2754 173.373 22.024C170.692 23.8257 167.513 24.6353 164.342 24.324C162.864 24.1306 161.463 23.5272 160.282 22.576C159.149 21.687 158.4 20.3636 158.197 18.896C158.091 18.2085 158.129 17.5051 158.307 16.8342C158.485 16.1633 158.799 15.5407 159.228 15.009C159.648 14.5337 160.184 14.1881 160.778 14.0097C161.372 13.8312 162.001 13.8269 162.597 13.997C163.164 14.1035 163.691 14.3761 164.116 14.7831C164.541 15.1901 164.848 15.715 165 16.297C165.086 16.8504 165.052 17.4171 164.9 17.9547C164.748 18.4923 164.482 18.987 164.123 19.402C163.448 20.18 162.589 20.7556 161.632 21.0695C160.771 21.366 159.879 21.5552 158.976 21.633C157.534 21.8359 156.068 21.5583 154.784 20.8395C153.985 20.367 153.339 19.6539 152.93 18.7925C152.829 18.4715 152.745 18.1452 152.677 17.815Z" fill="#455A64"/>
<path d="M233.792 28.05C232.74 28.6179 231.638 29.0762 230.5 29.4185C229.259 29.703 227.977 29.7303 226.725 29.499C225.197 29.2003 223.718 28.6695 222.336 27.9235C219.808 26.5352 217.778 24.3235 216.553 21.6215C216.094 20.4758 215.705 19.3004 215.39 18.1025C215.361 18.4413 215.383 18.7829 215.456 19.1145C215.6 20.0324 215.85 20.9284 216.202 21.7825C217.362 24.6557 219.442 27.0146 222.084 28.4525C223.53 29.2208 225.081 29.7522 226.681 30.028C227.998 30.2467 229.343 30.1762 230.632 29.821C231.491 29.5691 232.309 29.1813 233.057 28.671C233.551 28.372 233.814 28.1305 233.792 28.05Z" fill="#455A64"/>
<path d="M234.297 36.606C234.297 36.5025 233.013 36.974 230.895 37.1235C228.142 37.3378 225.384 36.7706 222.913 35.4815C220.441 34.1924 218.346 32.229 216.849 29.798C215.686 27.9465 215.28 26.601 215.181 26.647C215.204 26.9731 215.282 27.2924 215.412 27.59C215.702 28.4341 216.07 29.2467 216.509 30.0165C217.97 32.5879 220.107 34.6638 222.664 35.9956C225.221 37.3274 228.09 37.8587 230.928 37.526C231.777 37.4334 232.615 37.2524 233.43 36.9855C233.738 36.9147 234.032 36.7861 234.297 36.606Z" fill="#455A64"/>
<path d="M207.599 57.6165C207.676 57.6166 207.749 57.5854 207.805 57.5297C207.86 57.4739 207.892 57.3978 207.895 57.3175C207.9 57.2782 207.897 57.2383 207.887 57.2002C207.876 57.1621 207.859 57.1265 207.835 57.0955C207.812 57.0644 207.783 57.0386 207.75 57.0195C207.717 57.0003 207.68 56.9883 207.643 56.984C207.566 56.9808 207.491 57.009 207.434 57.0626C207.376 57.1163 207.341 57.1912 207.336 57.2715C207.331 57.3123 207.334 57.3537 207.345 57.3932C207.356 57.4327 207.374 57.4696 207.398 57.5017C207.423 57.5338 207.453 57.5604 207.488 57.5802C207.522 57.5999 207.56 57.6122 207.599 57.6165Z" fill="#EB996E"/>
<path d="M202.683 57.099C202.754 57.1226 202.831 57.1223 202.903 57.0981C202.974 57.0738 203.037 57.0269 203.082 56.9637C203.127 56.9006 203.152 56.8244 203.153 56.7456C203.155 56.6669 203.133 56.5896 203.091 56.5243C203.049 56.4591 202.989 56.4092 202.918 56.3816C202.848 56.354 202.771 56.35 202.699 56.3702C202.626 56.3903 202.561 56.4337 202.513 56.4942C202.465 56.5548 202.436 56.6295 202.43 56.708C202.422 56.751 202.423 56.7953 202.431 56.8383C202.439 56.8812 202.456 56.922 202.479 56.9583C202.503 56.9947 202.533 57.0258 202.568 57.0499C202.603 57.074 202.642 57.0907 202.683 57.099Z" fill="#EB996E"/>
<path d="M199.446 57.4325C199.599 57.4325 199.731 57.214 199.731 56.9495C199.731 56.685 199.61 56.478 199.457 56.478C199.303 56.478 199.171 56.685 199.171 56.9495C199.171 57.214 199.292 57.421 199.446 57.4325Z" fill="#EB996E"/>
<path d="M205.613 61.0665C205.766 61.0665 205.876 60.94 205.865 60.8365C205.854 60.733 205.722 60.6755 205.569 60.687C205.415 60.6985 205.305 60.8135 205.316 60.917C205.327 61.0205 205.459 61.078 205.613 61.0665Z" fill="#EB996E"/>
<path d="M201.103 60.5605C201.142 60.5562 201.18 60.5439 201.214 60.5241C201.248 60.5044 201.279 60.4778 201.303 60.4457C201.328 60.4136 201.346 60.3767 201.357 60.3372C201.367 60.2977 201.371 60.2563 201.366 60.2155C201.368 60.1753 201.361 60.1352 201.348 60.0975C201.334 60.0599 201.313 60.0256 201.287 59.9966C201.26 59.9676 201.228 59.9446 201.193 59.9288C201.157 59.9131 201.119 59.905 201.081 59.905C201.042 59.9078 201.005 59.9188 200.97 59.9373C200.936 59.9558 200.906 59.9815 200.881 60.0126C200.856 60.0438 200.838 60.0799 200.827 60.1187C200.816 60.1576 200.813 60.1983 200.817 60.2385C200.814 60.2797 200.82 60.321 200.832 60.36C200.845 60.399 200.866 60.4347 200.893 60.465C200.92 60.4952 200.952 60.5193 200.988 60.5357C201.024 60.5522 201.063 60.5606 201.103 60.5605Z" fill="#EB996E"/>
<path d="M177.916 60.6525C177.995 60.6525 178.07 60.6198 178.125 60.5615C178.181 60.5033 178.212 60.4243 178.212 60.342C178.218 60.3018 178.217 60.2607 178.207 60.2213C178.198 60.1818 178.181 60.1448 178.157 60.1125C178.133 60.0802 178.104 60.0533 178.07 60.0334C178.036 60.0136 177.998 60.0012 177.96 59.997C177.881 59.997 177.806 60.0297 177.75 60.0879C177.695 60.1462 177.664 60.2251 177.664 60.3075C177.654 60.3882 177.675 60.4695 177.723 60.534C177.77 60.5985 177.839 60.641 177.916 60.6525Z" fill="#EB996E"/>
<path d="M174.624 60.756C174.665 60.7504 174.704 60.7363 174.739 60.7147C174.774 60.693 174.805 60.6643 174.83 60.63C174.854 60.5957 174.872 60.5566 174.882 60.5151C174.892 60.4735 174.894 60.4303 174.887 60.388C174.875 60.3327 174.848 60.2824 174.809 60.2428C174.77 60.2033 174.721 60.1761 174.668 60.1646C174.615 60.1531 174.56 60.1576 174.509 60.1777C174.458 60.1977 174.414 60.2325 174.382 60.278C174.349 60.3234 174.33 60.3776 174.325 60.4342C174.321 60.4908 174.333 60.5475 174.358 60.5977C174.383 60.6478 174.422 60.6893 174.469 60.7174C174.516 60.7454 174.57 60.7588 174.624 60.756Z" fill="#EB996E"/>
<path d="M180.835 60.365C180.899 60.365 180.96 60.3383 181.006 60.2909C181.051 60.2435 181.076 60.1791 181.076 60.112C181.076 60.0449 181.051 59.9805 181.006 59.9331C180.96 59.8857 180.899 59.859 180.835 59.859C180.802 59.8542 180.768 59.8563 180.736 59.8653C180.703 59.8743 180.673 59.8899 180.646 59.9113C180.62 59.9327 180.598 59.9595 180.581 59.99C180.564 60.0205 180.554 60.0541 180.55 60.089C180.548 60.1278 180.554 60.1666 180.568 60.2025C180.582 60.2385 180.603 60.2708 180.631 60.2972C180.658 60.3235 180.69 60.3432 180.726 60.355C180.761 60.3667 180.798 60.3701 180.835 60.365Z" fill="#EB996E"/>
<path d="M178.827 64.091C178.865 64.0994 178.904 64.0998 178.943 64.0922C178.981 64.0846 179.018 64.0691 179.05 64.0467C179.083 64.0243 179.111 63.9953 179.133 63.9614C179.155 63.9276 179.17 63.8895 179.178 63.8495C179.198 63.7763 179.19 63.6976 179.155 63.6307C179.12 63.5639 179.061 63.5143 178.991 63.493C178.922 63.4716 178.846 63.4802 178.783 63.5169C178.719 63.5535 178.672 63.6153 178.651 63.6885C178.637 63.727 178.631 63.768 178.632 63.8091C178.633 63.8503 178.642 63.8908 178.659 63.9282C178.675 63.9657 178.698 63.9994 178.727 64.0273C178.756 64.0553 178.79 64.0769 178.827 64.091Z" fill="#EB996E"/>
<path d="M175.974 63.8725C176.039 63.8489 176.092 63.7996 176.123 63.7351C176.154 63.6706 176.159 63.5961 176.138 63.5275C176.123 63.4965 176.103 63.4689 176.077 63.4464C176.052 63.4238 176.023 63.4067 175.991 63.396C175.959 63.3853 175.926 63.3813 175.893 63.3841C175.86 63.3869 175.828 63.3966 175.798 63.4125C175.763 63.4191 175.729 63.4338 175.7 63.4556C175.671 63.4775 175.647 63.5058 175.629 63.5387C175.612 63.5715 175.602 63.6081 175.599 63.6456C175.597 63.6831 175.603 63.7206 175.616 63.7555C175.63 63.7904 175.65 63.8218 175.677 63.8473C175.703 63.8728 175.734 63.8919 175.768 63.9031C175.803 63.9143 175.839 63.9174 175.874 63.9121C175.91 63.9068 175.944 63.8932 175.974 63.8725Z" fill="#EB996E"/>
<path d="M73.801 178.976C79.8254 171.466 86.7386 167.855 95.7477 161.496C91.3583 183.277 93.147 199.331 100.247 216.316L91.2267 228.644C91.2267 228.644 71.4747 235.602 68.3473 216.673C67.645 212.441 67.0963 208.853 66.6683 205.851C65.9751 201.098 66.2524 196.244 67.482 191.611C68.7116 186.978 70.8653 182.672 73.801 178.976Z" fill="#FB8500"/>
<path d="M159.909 154.24C159.789 154.328 159.66 154.401 159.525 154.458C159.272 154.596 158.877 154.768 158.427 155.044C156.979 155.846 155.602 156.782 154.312 157.839C149.625 161.831 145.941 166.963 143.58 172.789C141.866 176.758 140.482 180.875 139.444 185.094C138.269 189.625 137.523 194.593 136.623 199.803C134.835 210.233 132.717 221.653 130.402 233.647C128.086 245.642 125.859 257.038 123.927 267.434C121.996 277.83 120.372 287.214 119.099 295.103C117.826 302.992 116.904 309.409 116.279 313.837C115.972 316.033 115.719 317.747 115.555 318.943C115.467 319.506 115.401 319.943 115.346 320.265C115.333 320.418 115.304 320.568 115.258 320.713C115.244 320.561 115.244 320.406 115.258 320.253C115.258 319.932 115.346 319.483 115.412 318.931C115.555 317.724 115.763 316.01 116.026 313.813C116.586 309.363 117.464 302.946 118.671 295.034C119.878 287.122 121.469 277.727 123.379 267.331C125.288 256.935 127.505 245.48 129.809 233.532C132.113 221.583 134.253 210.129 136.075 199.71C136.986 194.512 137.754 189.522 138.95 184.968C140.015 180.725 141.432 176.588 143.185 172.605C145.601 166.744 149.373 161.605 154.159 157.655C155.466 156.606 156.87 155.696 158.351 154.941C158.855 154.677 159.261 154.516 159.525 154.401L159.909 154.24Z" fill="#455A64"/>
<path d="M198.469 198.905C198.612 198.905 191.83 228.069 183.315 263.926C174.8 299.783 167.755 328.855 167.601 328.809C167.447 328.763 174.185 299.668 182.755 263.788C191.325 227.908 198.315 198.871 198.469 198.905Z" fill="#455A64"/>
<path d="M255.75 137.3C253.164 136.948 250.537 137.159 248.033 137.919C245.528 138.68 243.2 139.974 241.195 141.72C239.19 143.467 237.55 145.628 236.378 148.069C235.206 150.51 234.528 153.179 234.385 155.907L230.72 218.95L150.735 230.99L147.772 267.595L239.367 262.409C245.961 262.051 252.293 259.592 257.517 255.359C261.306 252.286 264.397 248.37 266.568 243.893C268.738 239.417 269.935 234.492 270.07 229.472L271.892 161.887C271.892 161.887 273.505 139.956 255.75 137.3Z" fill="#FB8500"/>
<path d="M241.561 234.935C241.534 234.814 241.516 234.691 241.506 234.567C241.506 234.291 241.474 233.934 241.408 233.497L241.331 232.704L241.144 231.772C241.078 231.427 241.013 231.06 240.925 230.68C240.837 230.301 240.683 229.898 240.541 229.472C239.852 227.417 238.769 225.53 237.359 223.929C235.493 221.811 233.183 220.177 230.61 219.157L230.456 219.1V218.95C230.939 207.45 231.345 191.799 231.883 174.606C232.19 165.602 232.475 157.023 232.98 149.214C233.172 145.5 233.742 141.818 234.681 138.231C235.498 135.083 236.929 132.146 238.884 129.606C240.542 127.546 242.594 125.873 244.908 124.696C246.649 123.805 248.547 123.304 250.483 123.224C251.703 123.173 252.924 123.337 254.093 123.707L254.982 124.064L255.278 124.202C253.743 123.636 252.119 123.382 250.494 123.454C248.582 123.569 246.714 124.098 245.007 125.006C242.752 126.189 240.757 127.849 239.147 129.883C237.256 132.392 235.874 135.28 235.087 138.369C234.184 141.926 233.639 145.573 233.463 149.249C233.035 157.034 232.761 165.625 232.453 174.629C231.916 191.81 231.455 207.45 230.873 218.973L230.731 218.754C233.356 219.814 235.706 221.508 237.589 223.7C239.015 225.363 240.091 227.322 240.749 229.45C240.881 229.887 241.002 230.289 241.111 230.68C241.221 231.071 241.243 231.451 241.309 231.83C241.375 232.21 241.419 232.497 241.474 232.785C241.528 233.072 241.474 233.348 241.474 233.59C241.474 234.038 241.474 234.395 241.474 234.671C241.509 234.756 241.539 234.845 241.561 234.935Z" fill="#263238"/>
<path d="M273.944 149.95C273.959 150.061 273.959 150.173 273.944 150.283V151.226C273.944 152.1 273.9 153.308 273.812 154.849C273.713 158.046 273.56 162.588 273.373 168.189C273.022 179.447 272.802 195.007 272.572 212.199C272.484 220.778 272.276 229.093 270.202 236.349C269.223 239.759 267.742 242.987 265.812 245.917C264.152 248.474 262.211 250.816 260.029 252.898C256.879 255.928 253.247 258.357 249.298 260.074C247.861 260.717 246.369 261.214 244.842 261.557L245.128 261.442L245.984 261.143C247.08 260.774 248.157 260.344 249.21 259.855C253.091 258.074 256.657 255.616 259.755 252.587C264.405 248.15 267.841 242.493 269.708 236.2C271.716 229.081 271.903 220.813 272.001 212.234C272.232 195.041 272.517 179.482 272.967 168.212C273.187 162.588 273.406 158.034 273.593 154.883C273.688 153.35 273.764 152.143 273.823 151.261C273.823 150.881 273.878 150.571 273.9 150.318C273.9 150.194 273.915 150.07 273.944 149.95Z" fill="#263238"/>
<path d="M161.599 155.412C161.805 153.081 162.202 150.773 162.784 148.512C163.183 146.196 163.766 143.919 164.528 141.704C164.315 144.035 163.918 146.342 163.343 148.604C162.946 150.921 162.362 153.199 161.599 155.412Z" fill="#263238"/>
<path d="M162.707 126.248C162.666 124.141 162.393 122.046 161.895 120.004C161.198 118.028 160.289 116.141 159.185 114.38C160.702 115.87 161.824 117.746 162.442 119.827C163.059 121.907 163.151 124.12 162.707 126.248Z" fill="#263238"/>
<path d="M77.6965 221.399L85.0596 233.509C85.0596 233.509 89.2734 254.991 93.5091 257.498C97.7448 260.005 114.194 272.586 115.565 271.171C116.937 269.757 113.678 264.743 113.678 264.743C113.678 264.743 120.032 271.102 121.184 269.4C122.336 267.698 117.738 260.994 117.738 260.994C117.738 260.994 122.018 268.446 124.212 266.065C126.407 263.685 122.27 257.556 122.27 257.556C122.27 257.556 128.13 261.27 128.174 258.153C128.218 255.037 118.967 242.95 118.967 242.95L106.897 222.756L94.7601 205.771C94.7601 205.771 77.6965 208.105 77.6965 221.399Z" fill="#FFBE9D"/>
<path d="M102.935 233.9L102.793 234.234C102.793 234.234 80.4838 245.963 81.3068 251.253C82.0091 255.853 84.8731 254.853 84.8731 254.853C84.8731 254.853 81.3946 258.533 85.1365 261.638C87.0568 263.225 90.1952 261.051 90.1952 261.051C90.0243 261.721 89.9828 262.42 90.0731 263.107C90.1633 263.794 90.3836 264.455 90.7208 265.052C91.0581 265.649 91.5056 266.169 92.0372 266.582C92.5687 266.995 93.1736 267.292 93.8164 267.457C93.8164 267.457 95.1551 271.908 97.4705 271.287C104.428 269.412 116.795 261.523 120.229 260.419C126.758 258.314 129.315 255.509 129.315 255.509L148.672 257.279L150.702 232.187L110.287 226.16C106.984 225.907 104.296 230.738 102.935 233.9Z" fill="#FFBE9D"/>
<path d="M122.018 227.909C121.412 227.969 120.802 227.969 120.196 227.909C119.022 227.828 117.321 227.702 115.236 227.391C114.71 227.299 114.139 227.207 113.601 227.069C113.064 226.931 112.504 226.678 111.89 226.575C110.649 226.298 109.356 226.448 108.202 227C106.987 227.741 106.067 228.917 105.613 230.312C105.311 231.063 104.943 231.782 104.515 232.463C104.037 233.152 103.485 233.781 102.869 234.337C101.651 235.389 100.339 236.317 98.952 237.109L95.1442 239.328C92.7191 240.731 90.5574 242.042 88.8016 243.238C87.0459 244.434 85.6962 245.538 84.7744 246.251C84.3196 246.672 83.8354 247.056 83.3259 247.401C83.4166 247.265 83.5236 247.141 83.6442 247.033C83.8636 246.803 84.1928 246.469 84.6318 246.067C85.8822 244.914 87.2017 243.846 88.5822 242.87C90.316 241.628 92.4667 240.271 94.8918 238.845L98.6667 236.545C100.023 235.781 101.303 234.876 102.485 233.843C103.643 232.797 104.555 231.487 105.152 230.013C105.454 229.288 105.821 228.595 106.249 227.943C106.704 227.309 107.299 226.8 107.983 226.46C109.239 225.868 110.646 225.722 111.988 226.046C112.625 226.172 113.184 226.437 113.711 226.575C114.238 226.713 114.808 226.827 115.313 226.919C117.365 227.287 119.055 227.472 120.218 227.621C120.823 227.676 121.425 227.772 122.018 227.909Z" fill="#EB996E"/>
<path d="M101.893 244.583C101.059 245.11 100.186 245.564 99.2811 245.94C97.6461 246.722 95.4075 247.849 92.9934 249.206C90.5792 250.563 88.4504 251.909 86.9251 252.909C86.1316 253.498 85.2909 254.014 84.4122 254.45C85.1072 253.731 85.8764 253.094 86.7057 252.553C90.5729 249.728 94.7372 247.378 99.1165 245.549C100.004 245.118 100.935 244.793 101.893 244.583Z" fill="#EB996E"/>
<path d="M103.144 254.91C103.21 255.083 100.071 256.336 96.3622 258.222C92.6532 260.108 89.7782 261.868 89.6685 261.672C90.1956 261.142 90.7947 260.697 91.4462 260.35C92.9563 259.368 94.5168 258.473 96.1208 257.67C97.7166 256.859 99.3541 256.141 101.026 255.52C101.702 255.217 102.415 255.012 103.144 254.91Z" fill="#EB996E"/>
<path d="M104.79 261.776C101.342 264.066 97.6973 266.014 93.9042 267.595C95.5741 266.359 97.3525 265.292 99.2153 264.41C100.992 263.354 102.858 262.472 104.79 261.776Z" fill="#EB996E"/>
<path d="M133.057 251.15C133.057 251.15 133.057 251.299 132.903 251.564C132.738 251.946 132.539 252.312 132.311 252.656C131.446 253.912 130.376 254.998 129.151 255.865C127.345 257.135 125.435 258.236 123.444 259.154L116.224 262.604C111.099 265.065 106.458 267.204 103.056 268.814L99.0617 270.7C98.5765 270.941 98.0738 271.141 97.5583 271.298C98.0012 270.977 98.4758 270.707 98.9739 270.493L102.902 268.492C106.194 266.836 110.869 264.582 115.994 262.132L123.225 258.682C125.201 257.803 127.105 256.757 128.92 255.554C130.136 254.737 131.221 253.724 132.135 252.553C132.75 251.702 133.002 251.15 133.057 251.15Z" fill="#EB996E"/>
</svg>
